<?xml version="1.0" encoding="utf-8"?>
<!-- Generator: Adobe Illustrator 18.1.0, SVG Export Plug-In . SVG Version: 6.00 Build 0)  -->
<svg version="1.1" id="Layer_1" xmlns="http://www.w3.org/2000/svg" xmlns:xlink="http://www.w3.org/1999/xlink" x="0px" y="0px"
	 viewBox="-50.1 324.6 450.3 115.9" enable-background="new -50.1 324.6 450.3 115.9" xml:space="preserve">
<path fill="#494440" d="M84.1,324.6H31.6c-4.1-0.1-7.8,2.2-9.6,5.8c-4.7-2.1-13.9-5.7-21.8-5.7c-16.1,0-37.2,3.1-37.5,3.1
	c-1,0.2-1.8,1.1-1.8,2.1v5l-9.3,1.4c-1,0.2-1.8,1-1.8,2.1v98c0,1.2,0.9,2.1,2.1,2.1c0.1,0,0.3,0,0.4,0c0.3-0.1,31.7-6.2,46.3-6.4
	c3.9-0.1,7.9,0.1,11.8,0.5c4.3,0.4,8.4,1.6,12.3,3.5c2,2.8,5.3,4.5,8.8,4.5h52.5c5.8,0,10.5-4.3,10.5-9.6v-96.7
	C94.6,328.9,89.9,324.6,84.1,324.6z M-34.9,331.7c5.4-0.7,21.9-2.8,35-2.8c7.6,0,17,3.9,21,5.7V423l-0.5-0.1
	c-4.8-1.6-9.7-2.7-14.7-3.3c-8.2-1.3-26.2,1-36.2,2.5c-1.8,0.3-3.4,0.5-4.6,0.7L-34.9,331.7L-34.9,331.7z M-1.4,427.8
	c-12.7,0.2-36.7,4.6-44.5,6v-93.6l6.9-1v86.2c0,0.6,0.3,1.2,0.8,1.6l0,0c0.4,0.4,1,0.5,1.6,0.5h0.1c0.1,0,1.5-0.3,3.9-0.6h0.3h0.2
	c7.9-1.2,24.5-3.6,34.5-3.1c1,0,2.1,0.1,3.1,0.2h0.1c4.9,0.8,10.6,2.3,13.8,3.1l1.3,0.4l0.6,2.9v0.4c-3.3-1.2-6.7-2-10.2-2.4
	C6.8,428,2.7,427.8-1.4,427.8z M57.3,437.6c-1.8,0-3.2-1.5-3.2-3.2s1.5-3.2,3.2-3.2s3.2,1.5,3.2,3.2l0,0
	C60.6,436.1,59.1,437.6,57.3,437.6C57.3,437.6,57.3,437.6,57.3,437.6z M88.3,424.1c-0.1,2.2-1.9,3.9-4.2,3.8c0,0,0,0,0,0H31.6
	c-2.2,0.1-4.1-1.6-4.2-3.8c0,0,0,0,0,0v-90c0.1-2.2,1.9-3.9,4.2-3.8c0,0,0,0,0,0h52.5c2.2-0.1,4.1,1.6,4.2,3.8c0,0,0,0,0,0
	L88.3,424.1z"/>
<path fill="#494440" d="M37.1,406.2v-59.5h21.8c3.1,0,6.1,0.3,9.2,1c2.7,0.6,5.2,1.6,7.4,3.2c2.1,1.5,3.9,3.6,5,5.9
	c1.3,2.8,1.9,5.9,1.8,9.1c0.1,3.1-0.6,6.2-1.9,9c-1.2,2.5-2.9,4.6-5.1,6.3c-2.2,1.7-4.8,2.9-7.4,3.6c-2.9,0.8-6,1.2-9,1.2h-8.4v20.3
	H37.1z M50.5,375.3H58c7.3,0,10.9-3.2,10.9-9.5c0-3.2-0.9-5.4-2.8-6.7s-4.6-2-8.2-2h-7.5L50.5,375.3z"/>
<path fill="#494440" d="M106.9,389v-28.1h13.4v26.5c0,3.3,0.5,5.6,1.4,6.8c1,1.3,2.7,2,4.3,1.9c1.5,0.1,3-0.4,4.3-1.2
	c1.4-1.1,2.7-2.4,3.7-3.9v-30h13.4v45.3h-11l-1-6.2h-0.3c-1.8,2.1-3.9,4-6.3,5.4c-2.4,1.4-5.2,2-8,2c-4.9,0-8.5-1.6-10.7-4.9
	C107.9,399.2,106.9,394.7,106.9,389z"/>
<path fill="#494440" d="M166.6,406.2v-64H180v15.7l-0.4,6.9c1.7-1.5,3.6-2.8,5.7-3.7c2-0.9,4.1-1.3,6.2-1.3c2.6,0,5.1,0.5,7.4,1.6
	c2.2,1.1,4.1,2.7,5.6,4.6c1.6,2.2,2.8,4.6,3.6,7.2c0.9,3.1,1.3,6.3,1.2,9.5c0.1,3.5-0.5,7-1.6,10.4c-0.9,2.8-2.4,5.4-4.3,7.7
	c-1.7,2-3.8,3.6-6.1,4.8c-2.2,1.1-4.6,1.6-7.1,1.6c-2.1,0-4.2-0.5-6.1-1.5c-2.2-1.1-4.1-2.6-5.7-4.4h-0.4l-1.1,4.7L166.6,406.2z
	 M180,393.4c1.1,1,2.3,1.8,3.7,2.3c1.1,0.4,2.4,0.6,3.6,0.6c2.4,0,4.6-1.2,5.9-3.1c1.6-2.1,2.5-5.5,2.5-10.2
	c0-8.1-2.6-12.2-7.9-12.2c-2.7,0-5.3,1.4-7.8,4.1L180,393.4z"/>
<path fill="#494440" d="M227.7,406.2v-59.5H243l9.9,26.8l3.6,10.4h0.4l3.6-10.4l9.7-26.8h15.1v59.5h-13.4v-21.8
	c0-1.5,0.1-3.1,0.2-4.8c0.1-1.8,0.3-3.6,0.5-5.3c0.2-1.8,0.4-3.6,0.6-5.3c0.2-1.7,0.4-3.3,0.6-4.8h-0.4l-5,13.8l-9.1,23.1h-5.4
	l-9.2-23.1l-4.8-13.8h-0.4c0.2,1.5,0.4,3,0.6,4.8c0.2,1.7,0.4,3.5,0.6,5.3s0.3,3.6,0.4,5.3c0.1,1.8,0.2,3.4,0.2,4.9v21.8H227.7z"/>
<path fill="#494440" d="M302.1,383.5c-0.1-3.4,0.6-6.8,1.8-9.9c1.1-2.8,2.7-5.3,4.8-7.5c1.9-2,4.2-3.6,6.8-4.7
	c5.2-2.2,11.1-2.2,16.4,0c2.3,1,4.4,2.6,6.1,4.6c1.7,2,2.9,4.4,3.6,6.9c0.8,2.8,1.2,5.7,1.2,8.6c0,1.1-0.1,2.2-0.2,3.3
	c-0.1,1-0.2,1.8-0.4,2.3h-27.1c0.6,3.4,1.9,5.8,4,7.3c2.3,1.6,5,2.4,7.7,2.3c3.5-0.1,6.8-1.1,9.8-2.9l4.5,8.1
	c-2.4,1.6-5,2.9-7.7,3.8c-2.7,0.9-5.5,1.4-8.4,1.5c-3.1,0-6.1-0.5-9-1.6c-2.7-1-5.2-2.6-7.3-4.7c-2.1-2.1-3.8-4.7-4.8-7.5
	C302.7,390.3,302.1,386.9,302.1,383.5z M315,378.9h16.4c0.1-2.2-0.5-4.4-1.7-6.2c-1.2-1.6-3.1-2.4-5.8-2.4c-2.1,0-4.1,0.7-5.6,2.1
	C316.5,373.8,315.5,375.9,315,378.9z"/>
<path fill="#494440" d="M357.4,383.5c-0.1-3.4,0.5-6.8,1.6-10c1-2.7,2.4-5.2,4.2-7.4c1.6-2,3.7-3.6,6-4.7c2.2-1.1,4.6-1.6,7-1.6
	c2.2-0.1,4.3,0.4,6.3,1.3c1.8,0.9,3.4,2.1,4.9,3.5l-0.6-7v-15.3h13.4v64h-10.9l-0.9-4.5H388c-1.6,1.6-3.5,3-5.6,4
	c-2,1-4.2,1.6-6.4,1.6c-2.6,0-5.2-0.5-7.6-1.6c-2.3-1.1-4.3-2.7-5.9-4.7c-1.7-2.2-3-4.7-3.8-7.4
	C357.8,390.3,357.4,386.9,357.4,383.5z M371.2,383.4c0,4.5,0.7,7.8,2.1,9.9c1.3,2,3.6,3.2,6.1,3.1c1.4,0,2.8-0.3,4-0.9
	c1.4-0.8,2.5-1.9,3.4-3.2v-18.5c-1.1-1-2.4-1.8-3.8-2.3c-1.2-0.4-2.5-0.6-3.8-0.6c-2.3,0.1-4.4,1.2-5.7,3.1
	C372,375.9,371.2,379.1,371.2,383.4z"/>
</svg>
