<svg xmlns="http://www.w3.org/2000/svg" viewBox="0 0 483.5 178" width="483.5px" height="178px">
  <g fill="#494440">
    <path d="M147.12,16.59H94.64A10.56,10.56,0,0,0,85,22.42c-4.68-2.08-13.87-5.67-21.79-5.7-16.13,0-37.25,3.06-37.46,3.09A2.1,2.1,0,0,0,24,21.89v5l-9.29,1.36a2.1,2.1,0,0,0-1.79,2.08v98a2.1,2.1,0,0,0,2.5,2.06c.32-.06,31.69-6.19,46.28-6.44a97.36,97.36,0,0,1,11.81.51A34.68,34.68,0,0,1,85.78,128a10.74,10.74,0,0,0,8.85,4.46h52.48c5.8,0,10.5-4.3,10.5-9.6V26.19C157.62,20.89,152.92,16.59,147.12,16.59Zm-119,7.13c5.39-.74,21.91-2.84,35-2.8,7.6,0,17,3.9,21,5.73V115l-.53-.14a69.57,69.57,0,0,0-14.67-3.27c-8.24-1.32-26.17,1-36.18,2.49-1.85.28-3.43.53-4.62.72V23.71ZM61.58,119.8c-12.67.22-36.68,4.56-44.52,6V32.15l6.89-1v86.17a2.1,2.1,0,0,0,.75,1.61h0a2.08,2.08,0,0,0,1.59.47h.12c.07,0,1.55-.27,3.93-.64l.27,0,.22,0c7.88-1.23,24.45-3.55,34.46-3.11,1,0,2.07.13,3.07.23h.08c4.93.84,10.62,2.26,13.82,3.09l1.3.45.58,2.93v.45a41.76,41.76,0,0,0-10.24-2.37A103.08,103.08,0,0,0,61.58,119.8Zm58.74,9.79a3.25,3.25,0,1,1,3.25-3.25A3.25,3.25,0,0,1,120.32,129.59Zm31-13.44a4,4,0,0,1-4.2,3.84H94.64a4,4,0,0,1-4.2-3.84v-90a4,4,0,0,1,4.2-3.84h52.48a4,4,0,0,1,4.2,3.84Z"/>
    <path d="M100.06,98.18V38.65H121.9a41.79,41.79,0,0,1,9.15,1,20.61,20.61,0,0,1,7.42,3.18,15.56,15.56,0,0,1,5,5.91,20.17,20.17,0,0,1,1.84,9.06,20.16,20.16,0,0,1-1.89,9,17.45,17.45,0,0,1-5.1,6.27,21.84,21.84,0,0,1-7.44,3.62,33.55,33.55,0,0,1-9,1.18h-8.36V98.18Zm13.42-30.86H121q10.92,0,10.92-9.48,0-4.76-2.76-6.72t-8.16-2h-7.49Z"/>
    <path d="M169.91,81V52.88h13.42V79.34q0,5,1.36,6.79A5,5,0,0,0,189,88a7.32,7.32,0,0,0,4.28-1.21A17.72,17.72,0,0,0,197,82.92v-30h13.42v45.3h-11l-1-6.23h-.27a24.78,24.78,0,0,1-6.27,5.4,15.56,15.56,0,0,1-8,1.95q-7.4,0-10.72-4.86T169.91,81Z"/>
    <path d="M229.59,98.18v-64H243V49.91l-.36,6.91a20.68,20.68,0,0,1,5.71-3.69,15.69,15.69,0,0,1,6.24-1.32A16.42,16.42,0,0,1,262,53.44a16.07,16.07,0,0,1,5.6,4.6,21.38,21.38,0,0,1,3.56,7.23,33.77,33.77,0,0,1,1.25,9.49,31.34,31.34,0,0,1-1.6,10.4,23.81,23.81,0,0,1-4.29,7.71,18.82,18.82,0,0,1-6.1,4.79,16,16,0,0,1-7.05,1.65,13.93,13.93,0,0,1-6.09-1.47,19.17,19.17,0,0,1-5.73-4.37h-.36l-1.07,4.73ZM243,85.39a11,11,0,0,0,3.66,2.29,10.67,10.67,0,0,0,3.57.65,7.31,7.31,0,0,0,5.93-3.14q2.45-3.14,2.45-10.17,0-12.2-7.85-12.24-4,0-7.76,4.14Z"/>
    <path d="M290.68,98.18V38.65H306l9.93,26.75,3.56,10.39h.36l3.56-10.39,9.66-26.75h15.07V98.18H334.74V76.38q0-2.18.19-4.84t.5-5.35q.31-2.7.6-5.31t.57-4.79h-.38l-5,13.78L322.09,93H316.7l-9.2-23.1-4.76-13.78h-.44q.29,2.18.61,4.79t.56,5.31q.24,2.7.44,5.33t.19,4.86V98.18Z"/>
    <path d="M365.13,75.53a25.63,25.63,0,0,1,1.83-9.9,23.73,23.73,0,0,1,4.79-7.49,20.48,20.48,0,0,1,6.8-4.7,21.42,21.42,0,0,1,16.39,0A16.68,16.68,0,0,1,401,58a19.19,19.19,0,0,1,3.61,6.91,30.29,30.29,0,0,1,1.18,8.63,28.93,28.93,0,0,1-.18,3.34q-.18,1.52-.36,2.32H378.1q.89,5.08,4,7.33a12.92,12.92,0,0,0,7.74,2.26,19,19,0,0,0,9.77-2.91L404.1,94a30.13,30.13,0,0,1-7.71,3.84A26.17,26.17,0,0,1,388,99.3,25.08,25.08,0,0,1,379,97.69,20.9,20.9,0,0,1,371.7,93a21.3,21.3,0,0,1-4.84-7.45A27.16,27.16,0,0,1,365.13,75.53ZM378,70.89h16.37a10.23,10.23,0,0,0-1.74-6.17q-1.74-2.39-5.84-2.39a8.37,8.37,0,0,0-5.62,2.06Q378.73,66.46,378,70.89Z"/>
    <path d="M420.44,75.55a28.76,28.76,0,0,1,1.61-10,24.7,24.7,0,0,1,4.19-7.45,17.75,17.75,0,0,1,6-4.71,16.18,16.18,0,0,1,7-1.63,13.58,13.58,0,0,1,6.29,1.28,23.14,23.14,0,0,1,4.86,3.47l-.58-7V34.17h13.42v64H452.33l-.94-4.46H451a21.22,21.22,0,0,1-5.57,4A14.33,14.33,0,0,1,439,99.3a17.38,17.38,0,0,1-7.62-1.65,16.6,16.6,0,0,1-5.86-4.7,21.86,21.86,0,0,1-3.75-7.44A34.68,34.68,0,0,1,420.44,75.55Zm13.78-.18q0,6.77,2.14,9.86a6.94,6.94,0,0,0,6.06,3.09,8.59,8.59,0,0,0,4-.91,10.15,10.15,0,0,0,3.43-3.18V65.71a10.81,10.81,0,0,0-3.75-2.29,11.7,11.7,0,0,0-3.75-.65,7.14,7.14,0,0,0-5.66,3.07Q434.22,68.92,434.22,75.37Z"/>
    <path d="M296.53,149.37V115.74h4.55v33.9a2.28,2.28,0,0,0,.39,1.52,1.15,1.15,0,0,0,.87.43h.41a2.28,2.28,0,0,0,.58-.11l.59,3.47a4.06,4.06,0,0,1-1,.34,7.91,7.91,0,0,1-1.54.12,4.26,4.26,0,0,1-3.71-1.54A7.66,7.66,0,0,1,296.53,149.37Z"/>
    <path d="M335.15,147.86a7.37,7.37,0,0,1,3.92-6.71q3.92-2.32,12.45-3.26a12.76,12.76,0,0,0-.24-2.49,6,6,0,0,0-.87-2.17,4.74,4.74,0,0,0-1.67-1.53,5.52,5.52,0,0,0-2.7-.58,10.5,10.5,0,0,0-4.35.89,22.53,22.53,0,0,0-3.6,2l-1.79-3.16a29.91,29.91,0,0,1,4.55-2.29,15.31,15.31,0,0,1,5.91-1.11q4.9,0,7.1,3a13.14,13.14,0,0,1,2.21,8v16.32h-3.72l-.45-3.18h-.09a23.5,23.5,0,0,1-4.14,2.71,10.11,10.11,0,0,1-4.68,1.14,8.14,8.14,0,0,1-5.62-2A7.09,7.09,0,0,1,335.15,147.86Zm4.44-.35a3.77,3.77,0,0,0,1.34,3.27,5.48,5.48,0,0,0,3.32,1,7.76,7.76,0,0,0,3.64-.89,17.67,17.67,0,0,0,3.64-2.66v-7.37a45.66,45.66,0,0,0-5.65,1,14.43,14.43,0,0,0-3.69,1.43,5.33,5.33,0,0,0-2,1.9A4.65,4.65,0,0,0,339.59,147.51Z"/>
    <path d="M390.66,154.75v-39h4.55v10.62l-.11,4.82a19.08,19.08,0,0,1,3.94-2.69,9.48,9.48,0,0,1,4.37-1.09,10.24,10.24,0,0,1,4.54,1,9.05,9.05,0,0,1,3.31,2.75,12.57,12.57,0,0,1,2,4.27A21.12,21.12,0,0,1,414,141a18.68,18.68,0,0,1-.92,6.08,13.78,13.78,0,0,1-2.51,4.54,10.74,10.74,0,0,1-3.67,2.82,10.35,10.35,0,0,1-4.38,1,9.73,9.73,0,0,1-3.87-.86,13.42,13.42,0,0,1-3.74-2.45h-.2l-.4,2.64Zm4.55-5.93a11.42,11.42,0,0,0,3.47,2.15,9,9,0,0,0,3,.63,6.37,6.37,0,0,0,3-.73,7.27,7.27,0,0,0,2.4-2.07,10,10,0,0,0,1.59-3.3,15.81,15.81,0,0,0,.57-4.42,19.64,19.64,0,0,0-.37-4,8.67,8.67,0,0,0-1.23-3.08,6.05,6.05,0,0,0-2.19-2,6.67,6.67,0,0,0-3.2-.72q-3.23,0-7.1,3.63Z"/>
    <path d="M444.34,151.72l2.25-3a18.79,18.79,0,0,0,3.6,2.3,9.65,9.65,0,0,0,4.24.88,5.65,5.65,0,0,0,3.95-1.22,3.86,3.86,0,0,0,1.32-3,3,3,0,0,0-.55-1.81,5.45,5.45,0,0,0-1.41-1.34,10.5,10.5,0,0,0-2-1l-2.19-.9q-1.42-.48-2.84-1.11a11.27,11.27,0,0,1-2.54-1.54,8,8,0,0,1-1.85-2.11,5.51,5.51,0,0,1-.72-2.89,7.08,7.08,0,0,1,.64-3,7,7,0,0,1,1.82-2.42A8.52,8.52,0,0,1,451,128a12,12,0,0,1,3.84-.58,11.81,11.81,0,0,1,4.62.88,15,15,0,0,1,3.65,2.14L461,133.32a14,14,0,0,0-2.85-1.7,7.88,7.88,0,0,0-3.22-.66,5.17,5.17,0,0,0-3.71,1.15,3.64,3.64,0,0,0-1.19,2.7,2.68,2.68,0,0,0,.5,1.62,4.53,4.53,0,0,0,1.32,1.19,12,12,0,0,0,1.89.92l2.21.87q1.42.53,2.88,1.14a10.86,10.86,0,0,1,2.61,1.51,7.62,7.62,0,0,1,1.9,2.22,6.32,6.32,0,0,1,.75,3.18,7.4,7.4,0,0,1-.64,3.06,7.31,7.31,0,0,1-1.87,2.51,9.15,9.15,0,0,1-3.06,1.73,12.61,12.61,0,0,1-4.19.64,14.31,14.31,0,0,1-5.42-1A16.81,16.81,0,0,1,444.34,151.72Z"/>
  </g>
</svg>
